<?xml version="1.0" standalone="no"?>
<!DOCTYPE svg PUBLIC "-//W3C//DTD SVG 20010904//EN"
 "http://www.w3.org/TR/2001/REC-SVG-20010904/DTD/svg10.dtd">
<svg version="1.0" xmlns="http://www.w3.org/2000/svg"
 width="245.000000pt" height="279.000000pt" viewBox="0 0 245.000000 279.000000"
 preserveAspectRatio="xMidYMid meet">

<g transform="translate(0.000000,279.000000) scale(0.100000,-0.100000)"
fill="#000000" stroke="none">
<path d="M1025 2729 c-361 -28 -664 -136 -812 -291 -49 -51 -101 -144 -130
-233 -23 -71 -26 -96 -26 -215 0 -154 22 -271 93 -484 100 -296 208 -520 375
-771 263 -395 511 -650 667 -685 47 -11 60 -10 111 8 176 62 434 345 705 774
194 305 371 775 404 1070 10 93 10 119 -5 204 -42 235 -143 370 -360 477 -240
119 -639 176 -1022 146z m-730 -269 c-3 -5 -12 -10 -18 -10 -7 0 -6 4 3 10 19
12 23 12 15 0z m1099 -380 c-16 -24 -24 -46 -20 -57 5 -12 -14 -39 -71 -97
-43 -44 -61 -65 -40 -46 46 42 49 29 5 -18 -32 -32 -32 -34 -14 -48 11 -8 29
-14 39 -14 16 0 17 -3 7 -15 -7 -8 -21 -15 -31 -15 -23 0 -52 -29 -45 -46 7
-19 -11 -64 -36 -91 -27 -29 -38 -29 -38 0 0 29 -55 107 -74 107 -22 0 -29 19
-15 36 7 9 32 25 56 36 23 11 45 28 48 38 9 29 33 44 48 32 10 -9 30 6 88 65
41 42 66 71 57 64 -17 -12 -17 -11 -11 20 3 19 10 35 14 37 4 2 5 10 2 18 -3
8 0 14 7 14 6 0 8 -4 5 -10 -3 -5 -2 -10 4 -10 5 0 13 9 16 20 3 11 11 20 16
20 5 0 -3 -18 -17 -40z m112 -27 c15 -36 28 -42 38 -18 4 13 19 15 68 13 l63
-3 33 -68 c24 -47 39 -67 50 -65 10 2 33 32 52 68 l35 65 58 3 c54 3 58 1 67
-23 11 -29 12 -306 1 -345 -5 -20 -14 -26 -44 -28 -31 -3 -39 1 -54 25 -17 26
-53 35 -53 13 0 -20 -34 -40 -67 -40 -25 0 -42 7 -58 24 -13 14 -20 28 -17 31
4 3 0 3 -9 0 -8 -3 -19 -15 -24 -28 -8 -17 -20 -23 -52 -25 -41 -3 -42 -2 -47
30 -9 60 -16 152 -17 240 -1 61 -6 91 -16 99 -11 9 -12 9 -7 -4 7 -18 -41 -47
-78 -47 -13 0 -34 -12 -47 -25 -35 -37 -49 -30 -15 8 24 26 22 26 -11 -5 -57
-53 -68 -47 -15 7 32 32 49 43 63 39 17 -5 97 40 97 54 0 3 -15 21 -32 40
l-33 35 29 -19 c16 -10 35 -33 42 -51z m-840 -72 c34 -70 56 -83 86 -49 21 25
23 32 6 22 -9 -5 -8 -2 1 9 7 10 21 32 31 50 16 29 22 32 69 35 29 2 59 -2 66
-8 7 -6 16 -41 20 -78 9 -94 17 -112 53 -107 35 4 129 48 163 75 17 14 40 21
70 22 44 0 106 37 91 53 -4 5 -1 5 7 0 10 -6 4 -17 -26 -46 -36 -37 -40 -38
-70 -27 -26 10 -35 9 -57 -6 -15 -9 -31 -27 -36 -40 -7 -18 -19 -25 -57 -30
-58 -7 -88 -32 -102 -81 -24 -88 45 -176 140 -177 67 -1 119 50 119 118 0 26
5 33 27 39 37 9 53 23 53 46 0 12 -7 19 -19 19 -10 0 -23 6 -30 13 -8 10 -1
22 29 52 42 41 51 41 24 -1 -14 -20 -15 -30 -5 -50 17 -39 14 -50 -29 -93 -22
-22 -40 -48 -40 -58 0 -10 -10 -30 -23 -45 -61 -75 -157 -71 -243 9 -25 23
-33 26 -43 16 -11 -12 -38 -17 -71 -14 -8 1 -25 14 -38 29 -19 23 -24 25 -32
12 -5 -8 -10 -11 -10 -6 0 4 -8 -1 -17 -12 -32 -37 -96 -33 -119 7 -20 33 -41
31 -55 -6 -8 -21 -15 -24 -46 -21 -30 2 -39 8 -44 28 -11 39 -10 316 1 345 9
24 13 26 67 23 l58 -3 31 -64z"/>
<path d="M1175 1849 c-10 -15 3 -25 16 -12 7 7 7 13 1 17 -6 3 -14 1 -17 -5z"/>
<path d="M1216 1811 c-4 -7 -5 -15 -2 -18 9 -9 19 4 14 18 -4 11 -6 11 -12 0z"/>
<path d="M1105 1781 c-6 -11 9 -23 19 -14 9 9 7 23 -3 23 -6 0 -12 -4 -16 -9z"/>
<path d="M1137 1764 c-9 -10 12 -46 24 -39 14 10 11 25 -7 25 -8 0 -12 5 -9
10 7 11 2 13 -8 4z"/>
<path d="M1152 1689 c2 -6 8 -10 13 -10 5 0 11 4 13 10 2 6 -4 11 -13 11 -9 0
-15 -5 -13 -11z"/>
</g>
</svg>
